<svg xmlns="http://www.w3.org/2000/svg" xmlns:xlink="http://www.w3.org/1999/xlink" version="1.1" width="256" height="256" viewBox="0 0 256 256" xml:space="preserve">

<defs>
</defs>
<g style="stroke: none; stroke-width: 0; stroke-dasharray: none; stroke-linecap: butt; stroke-linejoin: miter; stroke-miterlimit: 10; fill: none; fill-rule: nonzero; opacity: 1;" transform="translate(1.4065934065934016 1.4065934065934016) scale(2.81 2.81)" >
	<path d="M 8.879 70.4 c -0.233 0 -0.468 -0.081 -0.658 -0.247 c -0.886 -0.774 -1.624 -1.667 -2.193 -2.653 c -2.87 -4.972 -1.391 -11.979 4.166 -19.733 c 5.396 -7.529 14.039 -14.95 24.338 -20.896 c 12.843 -7.415 26.508 -11.439 36.559 -10.763 c 0.551 0.037 0.968 0.514 0.931 1.064 c -0.037 0.551 -0.489 0.983 -1.065 0.931 c -9.668 -0.644 -22.911 3.275 -35.424 10.5 C 25.475 34.409 17.054 41.629 11.82 48.932 C 6.748 56.01 5.307 62.249 7.761 66.5 c 0.459 0.796 1.057 1.519 1.777 2.147 c 0.416 0.363 0.458 0.995 0.095 1.411 C 9.435 70.285 9.158 70.4 8.879 70.4 z" style="stroke: none; stroke-width: 1; stroke-dasharray: none; stroke-linecap: butt; stroke-linejoin: miter; stroke-miterlimit: 10; fill: rgb(255,255,255); fill-rule: nonzero; opacity: 1;" transform=" matrix(1 0 0 1 0 0) " stroke-linecap="round" />
	<path d="M 21.153 73.966 c -0.762 0 -1.506 -0.024 -2.232 -0.072 c -0.551 -0.037 -0.968 -0.514 -0.931 -1.064 c 0.036 -0.551 0.502 -0.958 1.064 -0.932 c 9.66 0.641 22.906 -3.278 35.412 -10.5 C 75 49.543 87.459 32.542 82.239 23.5 c -0.454 -0.787 -1.044 -1.502 -1.752 -2.125 c -0.414 -0.365 -0.454 -0.997 -0.09 -1.411 c 0.366 -0.416 0.998 -0.455 1.412 -0.09 c 0.871 0.767 1.598 1.65 2.162 2.625 c 5.868 10.167 -6.652 28.013 -28.505 40.63 C 43.558 70.006 30.938 73.966 21.153 73.966 z" style="stroke: none; stroke-width: 1; stroke-dasharray: none; stroke-linecap: butt; stroke-linejoin: miter; stroke-miterlimit: 10; fill: rgb(255,255,255); fill-rule: nonzero; opacity: 1;" transform=" matrix(1 0 0 1 0 0) " stroke-linecap="round" />
	<circle cx="13.67" cy="71.97" r="2" style="stroke: none; stroke-width: 1; stroke-dasharray: none; stroke-linecap: butt; stroke-linejoin: miter; stroke-miterlimit: 10; fill: rgb(255,255,255); fill-rule: nonzero; opacity: 1;" transform="  matrix(1 0 0 1 0 0) "/>
	<circle cx="76.33" cy="18.04" r="2" style="stroke: none; stroke-width: 1; stroke-dasharray: none; stroke-linecap: butt; stroke-linejoin: miter; stroke-miterlimit: 10; fill: rgb(255,255,255); fill-rule: nonzero; opacity: 1;" transform="  matrix(1 0 0 1 0 0) "/>
	<path d="M 82.171 54.591 c -0.37 0 -0.725 -0.205 -0.898 -0.56 c -4.271 -8.698 -14.292 -18.204 -26.806 -25.429 c -10.058 -5.807 -20.521 -9.49 -29.461 -10.371 c -8.666 -0.854 -14.79 1.018 -17.244 5.269 c -0.46 0.796 -0.787 1.675 -0.972 2.613 C 6.683 26.654 6.16 27.01 5.615 26.9 c -0.542 -0.106 -0.895 -0.632 -0.788 -1.174 c 0.227 -1.154 0.631 -2.239 1.201 -3.226 c 2.871 -4.971 9.68 -7.196 19.173 -6.259 c 9.218 0.908 19.966 4.683 30.265 10.629 c 12.844 7.416 23.162 17.24 27.601 26.28 c 0.243 0.495 0.039 1.095 -0.457 1.338 C 82.469 54.558 82.318 54.591 82.171 54.591 z" style="stroke: none; stroke-width: 1; stroke-dasharray: none; stroke-linecap: butt; stroke-linejoin: miter; stroke-miterlimit: 10; fill: rgb(255,255,255); fill-rule: nonzero; opacity: 1;" transform=" matrix(1 0 0 1 0 0) " stroke-linecap="round" />
	<path d="M 68.795 74.021 c -9.45 0 -21.832 -3.715 -34.262 -10.891 C 21.696 55.718 11.38 45.898 6.938 36.861 c -0.244 -0.496 -0.04 -1.095 0.457 -1.338 c 0.495 -0.244 1.094 -0.039 1.338 0.457 c 4.274 8.695 14.292 18.197 26.8 25.418 C 56.067 73.253 77.021 75.541 82.239 66.5 c 0.455 -0.787 0.779 -1.655 0.964 -2.579 c 0.107 -0.542 0.636 -0.895 1.177 -0.784 c 0.542 0.108 0.893 0.635 0.784 1.177 c -0.228 1.138 -0.629 2.21 -1.192 3.187 C 81.44 71.884 75.96 74.021 68.795 74.021 z" style="stroke: none; stroke-width: 1; stroke-dasharray: none; stroke-linecap: butt; stroke-linejoin: miter; stroke-miterlimit: 10; fill: rgb(255,255,255); fill-rule: nonzero; opacity: 1;" transform=" matrix(1 0 0 1 0 0) " stroke-linecap="round" />
	<circle cx="5.98" cy="31.35" r="2" style="stroke: none; stroke-width: 1; stroke-dasharray: none; stroke-linecap: butt; stroke-linejoin: miter; stroke-miterlimit: 10; fill: rgb(255,255,255); fill-rule: nonzero; opacity: 1;" transform="  matrix(1 0 0 1 0 0) "/>
	<circle cx="84.02" cy="58.65" r="2" style="stroke: none; stroke-width: 1; stroke-dasharray: none; stroke-linecap: butt; stroke-linejoin: miter; stroke-miterlimit: 10; fill: rgb(255,255,255); fill-rule: nonzero; opacity: 1;" transform="  matrix(1 0 0 1 0 0) "/>
	<path d="M 56.145 82.485 c -0.191 0 -0.385 -0.055 -0.556 -0.17 c -0.459 -0.308 -0.581 -0.929 -0.273 -1.387 C 60.712 72.88 63.935 59.449 63.935 45 C 63.935 21.29 55.44 2 45 2 c -0.919 0 -1.844 0.157 -2.748 0.465 c -0.524 0.179 -1.091 -0.101 -1.27 -0.623 c -0.179 -0.523 0.101 -1.091 0.623 -1.27 C 42.718 0.193 43.86 0 45 0 c 11.739 0 20.935 19.766 20.935 45 c 0 14.83 -3.349 28.678 -8.959 37.042 C 56.783 82.33 56.467 82.485 56.145 82.485 z" style="stroke: none; stroke-width: 1; stroke-dasharray: none; stroke-linecap: butt; stroke-linejoin: miter; stroke-miterlimit: 10; fill: rgb(255,255,255); fill-rule: nonzero; opacity: 1;" transform=" matrix(1 0 0 1 0 0) " stroke-linecap="round" />
	<path d="M 45 90 c -11.739 0 -20.934 -19.767 -20.934 -45 c 0 -14.823 3.346 -28.667 8.951 -37.032 c 0.308 -0.459 0.929 -0.582 1.387 -0.274 c 0.459 0.307 0.582 0.928 0.274 1.387 C 29.286 17.13 26.066 30.558 26.066 45 c 0 23.71 8.494 43 18.934 43 c 0.909 0 1.822 -0.153 2.717 -0.454 c 0.521 -0.181 1.09 0.104 1.267 0.628 s -0.104 1.091 -0.628 1.267 C 47.256 89.812 46.126 90 45 90 z" style="stroke: none; stroke-width: 1; stroke-dasharray: none; stroke-linecap: butt; stroke-linejoin: miter; stroke-miterlimit: 10; fill: rgb(255,255,255); fill-rule: nonzero; opacity: 1;" transform=" matrix(1 0 0 1 0 0) " stroke-linecap="round" />
	<circle cx="37.31" cy="4.390000000000001" r="2" style="stroke: none; stroke-width: 1; stroke-dasharray: none; stroke-linecap: butt; stroke-linejoin: miter; stroke-miterlimit: 10; fill: rgb(255,255,255); fill-rule: nonzero; opacity: 1;" transform="  matrix(1 0 0 1 0 0) "/>
	<circle cx="52.69" cy="85.61" r="2" style="stroke: none; stroke-width: 1; stroke-dasharray: none; stroke-linecap: butt; stroke-linejoin: miter; stroke-miterlimit: 10; fill: rgb(255,255,255); fill-rule: nonzero; opacity: 1;" transform="  matrix(1 0 0 1 0 0) "/>
	<circle cx="39.5" cy="39.5" r="4" style="stroke: none; stroke-width: 1; stroke-dasharray: none; stroke-linecap: butt; stroke-linejoin: miter; stroke-miterlimit: 10; fill: rgb(255,255,255); fill-rule: nonzero; opacity: 1;" transform="  matrix(1 0 0 1 0 0) "/>
	<circle cx="50.5" cy="39.5" r="4" style="stroke: none; stroke-width: 1; stroke-dasharray: none; stroke-linecap: butt; stroke-linejoin: miter; stroke-miterlimit: 10; fill: rgb(255,255,255); fill-rule: nonzero; opacity: 1;" transform="  matrix(1 0 0 1 0 0) "/>
	<circle cx="39.5" cy="50.5" r="4" style="stroke: none; stroke-width: 1; stroke-dasharray: none; stroke-linecap: butt; stroke-linejoin: miter; stroke-miterlimit: 10; fill: rgb(255,255,255); fill-rule: nonzero; opacity: 1;" transform="  matrix(1 0 0 1 0 0) "/>
	<circle cx="50.5" cy="50.5" r="4" style="stroke: none; stroke-width: 1; stroke-dasharray: none; stroke-linecap: butt; stroke-linejoin: miter; stroke-miterlimit: 10; fill: rgb(255,255,255); fill-rule: nonzero; opacity: 1;" transform="  matrix(1 0 0 1 0 0) "/>
</g>
</svg>